# xmcd
# 
# Track frame offsets:
#     150
#     13357
#     23426
#     34984
#     47536
#     60001
#     71365
#     83009
#     95384
#     107945
#     118328
#     129161
#     139159
#     150854
#     160979
#     172590
#     186310
#     197172
#     208271
#     219435
#     233049
#     243206
#     255466
#     267939
#     278072
# 
# Disc length: 3843
# 
# Revision: 3
# Processed by: cddbd v1.5.2PL0 Copyright (c) Steve Scherf et al.
# Submitted via: fre:ac v1.0.31
# 
DISCID=4b0f0119
DTITLE=Various Artist - The Best Of Country [CD 1)
DYEAR=2007
DGENRE=Country
TTITLE0=Kenny Rogers - Ruby (Don't Take Your Love To Town)
TTITLE1=Johnny Cash - Get rhythm
TTITLE2=Ray Price - Crazy Arms
TTITLE3=George Jones - What Am I Worth?
TTITLE4=Jim Reeves - Drinking Tequila
TTITLE5=Marty Robbins - Maybellene
TTITLE6=Patsy Cline - I've Loved And Lost Again
TTITLE7=Hank Williams - Lovesick Blues
TTITLE8=Slim Whitman - Secret Love
TTITLE9=Faron Young - Live Fast, Love Hard, Die Young
TTITLE10=June Carter - We've Got Things To Do
TTITLE11=Willie Nelson - I Didn't Sleep A Wink Last nNight
TTITLE12=Chet Atkins - Have You Ever Been Lonely? (Have You Ever Been Blue?)
TTITLE13=Johnny Horton - Ridin' The Sunshine Special
TTITLE14=Red Sovine - Please Don't Let Me Love You
TTITLE15=Jimmy Newman - Daydreamin'
TTITLE16=Hank Locklin - Stompy Joe
TTITLE17=Lefty Frizzell - I'm An Old, Old Man (Tryin' To Live While I Can)
TTITLE18=Tennessee Ernie Ford - Blackberry Boogie
TTITLE19=Darrell Glenn - Crying In The Chapel
TTITLE20=Kitty Wells - I Head The Jukebox Playing
TTITLE21=Sheb Wooley - Your Papa Ain't Steppin' Anymore
TTITLE22=Webb Pierce - Back Street Affair
TTITLE23=Hank Thompson - Rub-A-Dub-Dub
TTITLE24=Dolly Parton - Release Me
EXTD=
EXTT0=
EXTT1=
EXTT2=
EXTT3=
EXTT4=
EXTT5=
EXTT6=
EXTT7=
EXTT8=
EXTT9=
EXTT10=
EXTT11=
EXTT12=
EXTT13=
EXTT14=
EXTT15=
EXTT16=
EXTT17=
EXTT18=
EXTT19=
EXTT20=
EXTT21=
EXTT22=
EXTT23=
EXTT24=
PLAYORDER=
